<svg width="224" height="18" viewBox="0 0 224 18" fill="none" xmlns="http://www.w3.org/2000/svg">
<path d="M0 17.7688V0.260742H1.9712L21.2651 15.7431V0.260742H23.1467V17.7688H21.2053L1.8816 2.3154V17.7688H0Z" fill="white"/>
<path d="M84.2266 12.4437L86.2874 12.0965C86.586 13.5434 87.6314 14.6431 89.4831 15.3666C91.305 16.09 93.7242 16.4662 96.681 16.4662C99.9962 16.4662 102.415 16.1479 103.998 15.5113C105.581 14.8746 106.358 13.9775 106.358 12.791C106.358 12.0965 106.149 11.5756 105.701 11.1415C105.283 10.7363 104.566 10.418 103.61 10.2154C102.624 10.0129 101.34 9.83923 99.7572 9.75241L92.7386 9.40514C90.1103 9.23151 88.1391 8.79743 86.8548 8.13183C85.5706 7.46624 84.9135 6.45338 84.9135 5.03537C84.9135 3.44373 85.8394 2.19936 87.6612 1.33119C89.513 0.434084 92.201 0 95.785 0C99.5482 0 102.385 0.463023 104.327 1.38907C106.268 2.31511 107.433 3.58842 107.881 5.26688L105.82 5.61415C105.462 4.3119 104.476 3.29904 102.863 2.57556C101.221 1.88103 98.8911 1.53376 95.8148 1.53376C92.858 1.53376 90.6479 1.82315 89.1546 2.43087C87.6612 3.03858 86.9444 3.87781 86.9444 4.91961C86.9444 5.8746 87.4522 6.56913 88.4676 6.97428C89.4831 7.37942 91.066 7.66881 93.2463 7.8135L100.355 8.16077C103.222 8.3344 105.283 8.76849 106.537 9.43408C107.791 10.0997 108.448 11.1704 108.448 12.6463C108.448 14.4116 107.463 15.7428 105.462 16.6399C103.461 17.537 100.564 17.9711 96.7108 17.9711C94.3812 17.9711 92.3503 17.7685 90.5583 17.3633C88.7962 16.9582 87.3626 16.3505 86.2874 15.5113C85.1524 14.7299 84.4954 13.717 84.2266 12.4437Z" fill="white"/>
<path d="M127.203 17.7688V0.260742H147.841V1.73663H129.144V8.01637H146.258V9.52119H129.144V16.264H148.08V17.7688H127.203Z" fill="white"/>
<path d="M203.363 17.7688V0.260742H224.001V1.7945H205.364V8.65303H222.418V10.2157H205.364V17.7688H203.363Z" fill="white"/>
<path d="M56.1198 17.9999H53.372C44.9496 17.9999 43.1875 14.0064 43.1875 10.6495V0.231445H45.1587V10.6495C45.1587 12.9646 45.995 16.4662 53.372 16.4662H56.1198C63.467 16.4662 64.3331 12.9935 64.3331 10.6495V0.231445H66.3043V10.6495C66.3043 14.0064 64.5422 17.9999 56.1198 17.9999Z" fill="white"/>
<path d="M186.161 17.7688H176.693C172.093 17.7688 167.195 17.2479 167.195 11.1128V0.260742H169.167V11.1128C169.167 14.7302 170.929 16.264 176.663 16.264H186.131V17.7688H186.161Z" fill="white"/>
</svg>
